<?xml version="1.0" encoding="iso-8859-1"?>
<!-- Generator: Adobe Illustrator 19.0.0, SVG Export Plug-In . SVG Version: 6.00 Build 0)  -->
<svg version="1.1" id="Layer_1" xmlns="http://www.w3.org/2000/svg" xmlns:xlink="http://www.w3.org/1999/xlink" x="0px" y="0px"
	 viewBox="0 0 512 512" style="enable-background:new 0 0 512 512;" xml:space="preserve">
<g>
	<g>
		<g>
			<polygon points="151.728,135.91 136.102,135.91 136.102,152.115 119.897,152.115 119.897,167.741 136.102,167.741 
				136.102,183.946 151.728,183.946 151.728,167.741 167.933,167.741 167.933,152.115 151.728,152.115 			"/>
			<rect x="127.904" y="392.296" width="40.03" height="15.626"/>
			<rect x="312.041" y="384.285" width="88.068" height="15.626"/>
			<path d="M168.127,0v95.879h15.626V39.644h272.591V464.35h-24.211v15.626h24.211v16.398h-32.41v-88.066H288.217v88.066h-32.41
				v-16.398h24.212V464.35h-24.212V232.175h-40.03v-16.398h16.012V104.078H56.042v111.699h16.013v16.398H40.031V512h207.963h7.813
				h216.163V0H168.127z M71.668,200.151v-80.447h144.495v80.447H71.668z M200.151,215.777v16.398h-16.398v-16.398H200.151z
				 M168.127,215.777v16.398H87.681v-16.398H168.127z M168.127,496.374h-40.416V431.94h40.416V496.374z M240.181,464.35h-48.229
				v15.626h48.229v16.398h-56.428v-80.06h-71.668v80.06H55.657v-16.398h48.229V464.35H55.657V247.801h184.524V464.35z
				 M303.843,423.934h104.464v8.392H303.843V423.934z M303.843,447.952h104.464v8.392H303.843V447.952z M303.843,496.374v-24.405
				h104.464v24.405H303.843z M456.344,24.018H183.753v-8.392h272.591V24.018z"/>
			<path d="M223.783,328.248H72.055v47.65h151.728V328.248z M112.084,360.272H87.681v-16.398h24.404V360.272z M168.127,360.272
				h-40.416v-16.398h40.416V360.272z M208.157,360.272h-24.404v-16.398h24.404V360.272z"/>
			<path d="M223.783,264.199H72.055v47.65h151.728V264.199z M112.084,296.223H87.681v-16.398h24.404V296.223z M168.127,296.223
				h-40.416v-16.398h40.416V296.223z M208.157,296.223h-24.404v-16.398h24.404V296.223z"/>
			<path d="M439.945,72.055H200.151V95.88h15.626v-8.199h56.429v16.398h-32.218v15.626h199.957V72.055z M344.259,104.078h-56.427
				V87.681h56.427V104.078z M424.319,104.078h-64.434V87.681h64.434V104.078z"/>
			<path d="M439.945,144.109H239.988v15.626h32.218v16.398h-32.218v15.626h199.957V144.109z M344.259,176.133h-56.427v-16.398
				h56.427V176.133z M424.319,176.133h-64.434v-16.398h64.434V176.133z"/>
			<path d="M439.945,216.163H264.006v15.626h8.199v16.398h-8.199v15.626h175.939V216.163z M344.259,248.188h-56.427V231.79h56.427
				V248.188z M424.319,248.188h-64.434V231.79h64.434V248.188z"/>
			<path d="M439.945,288.217H264.006v15.626h8.199v16.398h-8.199v15.626h175.939V288.217z M344.259,320.241h-56.427v-16.398h56.427
				V320.241z M424.319,320.241h-64.434v-16.398h64.434V320.241z"/>
		</g>
	</g>
</g>
<g>
</g>
<g>
</g>
<g>
</g>
<g>
</g>
<g>
</g>
<g>
</g>
<g>
</g>
<g>
</g>
<g>
</g>
<g>
</g>
<g>
</g>
<g>
</g>
<g>
</g>
<g>
</g>
<g>
</g>
</svg>
