<?xml version="1.0" encoding="iso-8859-1"?>
<!-- Generator: Adobe Illustrator 19.0.0, SVG Export Plug-In . SVG Version: 6.00 Build 0)  -->
<svg version="1.1" id="Layer_1" xmlns="http://www.w3.org/2000/svg" xmlns:xlink="http://www.w3.org/1999/xlink" x="0px" y="0px"
	 viewBox="0 0 511.999 511.999" style="enable-background:new 0 0 511.999 511.999;" xml:space="preserve">
<g>
	<g>
		<g>
			<path d="M111.941,304.123c-26.421,0-47.915,21.495-47.915,47.915s21.495,47.915,47.915,47.915s47.915-21.495,47.915-47.915
				S138.361,304.123,111.941,304.123z M111.941,384.156c-17.71,0-32.118-14.408-32.118-32.118c0-17.71,14.408-32.118,32.118-32.118
				c17.71,0,32.118,14.408,32.118,32.118C144.059,369.748,129.651,384.156,111.941,384.156z"/>
			<path d="M111.941,328.133c-13.181,0-23.906,10.724-23.906,23.906s10.724,23.905,23.906,23.905s23.906-10.724,23.906-23.905
				C135.847,338.858,125.122,328.133,111.941,328.133z M111.941,360.146c-4.471,0-8.108-3.638-8.108-8.107
				c0-4.471,3.638-8.108,8.108-8.108s8.108,3.638,8.108,8.108C120.049,356.508,116.412,360.146,111.941,360.146z"/>
			<path d="M424.069,328.133c-13.182,0-23.906,10.724-23.906,23.906s10.724,23.905,23.906,23.905s23.905-10.724,23.905-23.905
				C447.973,338.858,437.249,328.133,424.069,328.133z M424.069,360.146c-4.471,0-8.108-3.638-8.108-8.107
				c0-4.471,3.638-8.108,8.108-8.108s8.107,3.638,8.107,8.108C432.176,356.508,428.54,360.146,424.069,360.146z"/>
			<path d="M424.069,304.123c-26.421,0-47.915,21.495-47.915,47.915s21.495,47.915,47.915,47.915s47.914-21.495,47.914-47.915
				S450.488,304.123,424.069,304.123z M424.069,384.156c-17.71,0-32.118-14.408-32.118-32.118c0-17.71,14.408-32.118,32.118-32.118
				c17.709,0,32.117,14.408,32.117,32.118C456.186,369.748,441.778,384.156,424.069,384.156z"/>
			<rect x="167.968" y="344.139" width="200.078" height="15.797"/>
			<polygon points="168.068,336.032 183.865,336.032 183.865,295.911 280.114,295.911 280.114,336.032 295.911,336.032 
				295.911,280.114 168.068,280.114 			"/>
			<rect x="215.981" y="304.119" width="32.013" height="15.797"/>
			<rect x="376.05" y="280.118" width="80.032" height="15.797"/>
			<path d="M304.124,152.061v183.866h63.817V152.061H304.124z M352.144,320.13h-32.222v-56.232h32.222V320.13z M352.144,248.101
				h-32.222v-80.242h32.222V248.101z"/>
			<path d="M295.911,152.061H168.068v111.837h127.844V152.061z M280.115,248.101h-0.001h-16.215v-32.118h-15.797v32.118h-32.222
				v-32.118h-15.797v32.118h-16.215v-80.242h96.249V248.101z"/>
			<path d="M32.013,263.898h127.844V152.061H32.013V263.898z M47.81,167.859h96.249v80.242h-16.216v-32.118h-15.797v32.118H79.823
				v-32.118H64.026v32.118H47.81V167.859z"/>
			<path d="M469.138,112.045H42.86C19.227,112.045,0,131.272,0,154.906v205.031h55.918V344.14H15.797v-48.228h144.163v-15.797
				H15.797V154.906c0-14.923,12.141-27.064,27.063-27.064h426.277c13.963,0,25.487,10.628,26.913,24.219H376.152v111.837h120.049
				v16.215h-24.114v15.797h24.114v8.213h-24.114v15.797h24.114v24.219h-16.112v15.797h31.91V154.906
				C512,131.272,492.773,112.045,469.138,112.045z M479.986,248.101V231.99h-15.797v16.111h-32.222v-32.118h-15.797v32.118H391.95
				v-80.242h104.252v80.242H479.986z"/>
		</g>
	</g>
</g>
<g>
</g>
<g>
</g>
<g>
</g>
<g>
</g>
<g>
</g>
<g>
</g>
<g>
</g>
<g>
</g>
<g>
</g>
<g>
</g>
<g>
</g>
<g>
</g>
<g>
</g>
<g>
</g>
<g>
</g>
</svg>
