<?xml version="1.0" encoding="iso-8859-1"?>
<!-- Generator: Adobe Illustrator 19.0.0, SVG Export Plug-In . SVG Version: 6.00 Build 0)  -->
<svg version="1.1" id="Layer_1" xmlns="http://www.w3.org/2000/svg" xmlns:xlink="http://www.w3.org/1999/xlink" x="0px" y="0px"
	 viewBox="0 0 386 386" style="enable-background:new 0 0 386 386;" xml:space="preserve">
<g>
	<g>
		<path d="M193,0C91.475,0,8.878,82.597,8.878,184.122c0,23.716,19.295,43.011,43.011,43.011h17.288
			c14.734,0,27.757-7.45,35.511-18.777c7.755,11.327,20.778,18.777,35.511,18.777h17.289c10.693,0,20.479-3.931,28.011-10.413V378.5
			c0,4.142,3.358,7.5,7.5,7.5c4.142,0,7.5-3.358,7.5-7.5V216.721c7.532,6.481,17.318,10.413,28.011,10.413h17.29
			c14.734,0,27.757-7.45,35.511-18.777c7.755,11.327,20.778,18.777,35.511,18.777h17.289c23.716,0,43.011-19.295,43.011-43.011
			C377.122,82.597,294.525,0,193,0z M69.178,212.133H51.889c-12.848,0-23.704-8.696-26.992-20.511h71.272
			C92.882,203.437,82.026,212.133,69.178,212.133z M97.271,176.623H24.042C27.305,102.3,78.764,40.277,147.86,21.118
			c-8.832,8.94-16.93,20.592-24.014,34.76C107.548,88.474,98.199,131.107,97.271,176.623z M157.489,212.133H140.2
			c-12.848,0-23.704-8.696-26.992-20.511h71.272C181.193,203.437,170.337,212.133,157.489,212.133z M185.5,176.622h-73.232
			c0.913-43.208,9.707-83.461,24.995-114.037c13.47-26.94,30.372-43.25,48.237-46.831V176.622z M245.8,212.133h-17.289
			c-12.848,0-23.704-8.696-26.992-20.511h71.272C269.504,203.437,258.648,212.133,245.8,212.133z M200.5,176.623V15.754
			c17.865,3.581,34.767,19.891,48.237,46.832c15.288,30.576,24.081,70.829,24.995,114.037H200.5z M334.111,212.133h-17.289
			c-12.848,0-23.704-8.696-26.992-20.511h71.272C357.815,203.437,346.959,212.133,334.111,212.133z M288.729,176.622
			c-0.928-45.516-10.277-88.149-26.575-120.745c-7.084-14.167-15.182-25.82-24.014-34.76
			c69.096,19.16,120.555,81.183,123.818,155.505H288.729z"/>
	</g>
</g>
<g>
</g>
<g>
</g>
<g>
</g>
<g>
</g>
<g>
</g>
<g>
</g>
<g>
</g>
<g>
</g>
<g>
</g>
<g>
</g>
<g>
</g>
<g>
</g>
<g>
</g>
<g>
</g>
<g>
</g>
</svg>
